<?xml version="1.0" standalone="no"?>
<!DOCTYPE svg PUBLIC "-//W3C//DTD SVG 20010904//EN"
 "http://www.w3.org/TR/2001/REC-SVG-20010904/DTD/svg10.dtd">
<svg version="1.0" xmlns="http://www.w3.org/2000/svg"
 width="499.000000pt" height="494.000000pt" viewBox="0 0 499.000000 494.000000"
 preserveAspectRatio="xMidYMid meet">
<metadata>
Created by potrace 1.16, written by Peter Selinger 2001-2019
</metadata>
<g transform="translate(0.000000,494.000000) scale(0.100000,-0.100000)"
fill="#000000" stroke="none">
<path d="M2405 4861 c-53 -25 -92 -70 -219 -254 -193 -281 -374 -502 -792
-968 -110 -122 -367 -372 -514 -499 -41 -36 -77 -67 -80 -70 -25 -28 -279
-233 -415 -335 -252 -190 -265 -205 -265 -294 0 -45 4 -54 42 -94 24 -24 126
-103 228 -175 102 -72 242 -176 312 -230 123 -96 170 -135 334 -277 44 -38
112 -97 150 -130 320 -276 724 -699 954 -1000 29 -38 56 -72 60 -75 11 -10 95
-126 160 -222 72 -106 116 -141 181 -141 60 0 98 31 178 143 173 243 291 403
385 519 56 68 125 154 154 190 182 224 678 720 977 977 144 123 411 334 522
412 124 88 148 118 148 188 0 77 -28 107 -206 227 -84 57 -188 128 -229 158
-111 80 -271 201 -300 225 -14 12 -70 59 -125 105 -152 127 -150 125 -295 260
-74 69 -153 146 -174 170 -21 24 -102 109 -180 189 -295 303 -563 617 -763
893 -35 48 -75 93 -91 101 -49 25 -94 28 -137 7z m174 -611 c33 -11 76 -30 98
-42 72 -41 276 -198 458 -351 98 -83 465 -443 625 -613 233 -247 438 -503 501
-625 34 -66 31 -154 -8 -239 -29 -63 -95 -167 -151 -240 -59 -77 -176 -225
-181 -230 -3 -3 -28 -32 -56 -65 -172 -207 -509 -550 -726 -740 -238 -209
-387 -325 -468 -366 -80 -41 -162 -40 -250 1 -182 87 -644 466 -1072 882 -219
212 -533 590 -592 713 -14 28 -28 68 -31 90 -25 149 189 444 753 1035 293 308
415 423 637 601 265 213 323 237 463 189z"/>
<path d="M2440 4141 c-125 -38 -393 -262 -775 -646 -282 -283 -390 -400 -500
-535 -152 -187 -184 -228 -228 -291 -131 -191 -122 -259 70 -499 318 -400 711
-777 1214 -1165 191 -147 252 -181 323 -178 86 4 153 46 401 252 202 167 534
488 700 676 39 43 97 109 130 146 114 127 310 386 354 469 65 122 51 202 -60
350 -143 190 -420 502 -570 643 -46 43 -125 117 -174 165 -127 123 -211 200
-274 252 -30 25 -71 59 -90 76 -51 43 -193 152 -278 212 -101 72 -174 94 -243
73z m85 -471 c51 -143 177 -478 214 -570 17 -41 31 -78 31 -82 0 -5 -43 -8
-97 -8 l-96 0 7 -97 c30 -462 37 -636 24 -644 -7 -5 -62 -9 -121 -9 l-109 0 6
243 c4 133 9 299 12 370 l6 127 -92 0 c-76 0 -91 3 -87 14 10 26 205 629 228
704 12 40 25 69 29 65 5 -4 25 -55 45 -113z m-484 -859 c31 -20 81 -50 110
-68 l54 -32 -30 -11 c-16 -7 -52 -18 -80 -25 -100 -27 -178 -70 -228 -125 -71
-79 -74 -121 -15 -180 67 -65 174 -102 406 -141 222 -36 495 -16 742 55 110
31 117 34 170 69 102 68 134 124 107 189 -19 43 -48 69 -125 109 l-63 33 -75
-19 c-41 -10 -76 -16 -78 -14 -2 2 -12 31 -24 64 -11 33 -27 77 -36 98 -9 20
-13 37 -9 37 5 0 40 -7 78 -16 39 -9 139 -30 223 -47 83 -18 152 -35 152 -39
0 -5 -9 -8 -19 -8 -11 0 -32 -5 -48 -11 l-28 -10 55 -32 c30 -17 76 -52 102
-78 37 -37 48 -56 53 -93 31 -206 -302 -365 -851 -406 -318 -23 -690 33 -903
135 -51 25 -111 59 -133 77 -152 120 -111 282 107 414 115 69 277 129 315 115
8 -3 40 -21 71 -40z m614 -1050 c11 -168 20 -337 20 -376 l0 -70 -159 -3 -159
-3 7 263 c3 145 9 315 12 378 l6 115 127 1 127 2 19 -307z"/>
<path d="M3650 824 c-101 -44 -155 -170 -113 -265 64 -144 234 -180 334 -72
41 43 59 87 59 143 0 145 -151 250 -280 194z m143 -44 c61 -29 90 -72 95 -140
3 -45 0 -61 -20 -89 -36 -53 -71 -74 -130 -78 -173 -14 -242 225 -87 304 55
28 87 29 142 3z"/>
<path d="M3639 746 c-2 -2 -2 -53 1 -113 4 -87 8 -108 20 -108 10 0 16 12 18
38 3 32 7 37 27 37 16 0 33 -12 51 -35 14 -19 35 -35 45 -35 23 0 24 10 2 48
-17 29 -17 31 0 50 23 25 22 77 -3 102 -16 16 -33 20 -88 20 -38 0 -71 -2 -73
-4z"/>
</g>
</svg>
